<?xml version="1.0" encoding="UTF-8"?>
<!DOCTYPE svg PUBLIC "-//W3C//DTD SVG 1.1//EN" "http://www.w3.org/Graphics/SVG/1.1/DTD/svg11.dtd">
<!-- Creator: CorelDRAW 2018 (64 Bit) -->
<svg xmlns="http://www.w3.org/2000/svg" xml:space="preserve" width="1024px" height="768px" version="1.1" style="shape-rendering:geometricPrecision; text-rendering:geometricPrecision; image-rendering:optimizeQuality; fill-rule:evenodd; clip-rule:evenodd"
viewBox="0 0 1024 768"
 xmlns:xlink="http://www.w3.org/1999/xlink">
 <defs>
  <style type="text/css">
   <![CDATA[
    .str0 {stroke:black;stroke-width:3;stroke-miterlimit:22.9256}
    .fil0 {fill:blue}
    .fil2 {fill:#F7EE43}
    .fil3 {fill:yellow}
    .fil1 {fill:white}
    .fil4 {fill:white}
   ]]>
  </style>
 </defs>
 <g id="Camada_x0020_1">
  <metadata id="CorelCorpID_0Corel-Layer"/>
  <path class="fil0 str0" d="M496.185 206.122c93.163,0 168.687,99.234 168.687,221.647 0,90.783 -41.543,168.804 -101.009,203.07 1.21,56.18 15.962,104.933 37.551,132.161l-99.096 0 -12.265 0 -99.097 0c21.59,-27.228 36.341,-75.981 37.552,-132.161 -59.466,-34.266 -101.01,-112.287 -101.01,-203.07 0,-122.413 75.524,-221.647 168.687,-221.647z"/>
  <g id="_2251148314336">
   <path class="fil1 str0" d="M409.666 753l173.039 0c-20.227,-35.503 -28.016,-83.66 -28.84,-121.946l-0.128 -5.922 5.133 -2.958c30.139,-17.367 53.286,-45.454 68.878,-76.199 18.439,-36.359 27.124,-77.553 27.124,-118.206 0,-46.868 -11.611,-94.866 -36.489,-134.87 -20.604,-33.132 -51.056,-61.387 -89.25,-72.19 -10.734,-3.036 -21.792,-4.587 -32.948,-4.587 -11.155,0 -22.215,1.551 -32.948,4.587 -38.194,10.804 -68.647,39.059 -89.25,72.191 -24.878,40.003 -36.489,88.001 -36.489,134.869 0,40.653 8.685,81.847 27.124,118.206 15.592,30.745 38.74,58.832 68.878,76.199l5.133 2.958 -0.127 5.922c-0.825,38.286 -8.613,86.443 -28.84,121.946z"/>
  </g>
  <polygon class="fil2 str0" points="496.185,311.363 519.274,352.96 562.666,336.533 554.648,383.836 598.041,400.264 562.667,431.138 585.756,472.736 539.578,472.736 531.559,520.038 496.185,489.164 460.811,520.038 452.793,472.736 406.615,472.736 429.703,431.138 394.33,400.264 437.723,383.836 429.704,336.533 473.096,352.961 "/>
  <g id="_2252631396656">
   <polygon class="fil1 str0" points="496.185,324.328 475.957,360.772 437.742,346.304 444.791,387.887 406.38,402.43 437.674,429.744 417.303,466.444 458.108,466.444 465.137,507.912 496.185,480.812 527.233,507.911 534.263,466.444 575.067,466.444 554.697,429.744 585.991,402.43 547.579,387.888 554.629,346.303 516.413,360.771 "/>
  </g>
  <g id="_2252631366928">
   <path class="fil3 str0" d="M475.371 6.591l41.627 0 0 184.96 -6.594 -0.656c-4.725,-0.471 -9.471,-0.719 -14.219,-0.719 -4.749,0 -9.495,0.248 -14.219,0.719l-6.595 0.656 0 -184.96z"/>
  </g>
  <path class="fil4 str0" d="M481.371 12.591l29.627 0 0 172.333c-4.885,-0.486 -9.823,-0.748 -14.813,-0.748 -4.99,0 -9.929,0.262 -14.814,0.748l0 -172.333z"/>
  <g id="_2252632220960">
   <path class="fil3 str0" d="M172.759 198.955l27.892 -29.697 142.543 121.516 -2.417 4.303c-4.724,8.41 -8.9,17.126 -12.524,26.065l-3.125 7.707 -152.369 -129.894z"/>
  </g>
  <path class="fil4 str0" d="M181.442 198.474l19.668 -20.941 134.436 114.605c-4.78,8.508 -9.08,17.442 -12.854,26.75l-141.25 -120.414z"/>
  <g id="_2251007315248">
   <path class="fil3 str0" d="M272.668 80.391l33.696 -23.605 115.665 149.447 -5.496 3.544c-7.886,5.084 -15.328,10.843 -22.274,17.149l-4.805 4.362 -116.786 -150.897z"/>
  </g>
  <path class="fil4 str0" d="M281.264 81.695l23.857 -16.713 108.16 139.752c-8.08,5.21 -15.785,11.149 -23.055,17.749l-108.962 -140.788z"/>
  <g id="_2251154937104">
   <path class="fil3 str0" d="M819.612 198.955l-152.37 129.894 -3.125 -7.707c-3.624,-8.939 -7.799,-17.655 -12.523,-26.065l-2.418 -4.303 142.544 -121.516 27.892 29.697z"/>
  </g>
  <path class="fil4 str0" d="M810.928 198.474l-19.667 -20.941 -134.437 114.605c4.78,8.508 9.08,17.442 12.854,26.75l141.25 -120.414z"/>
  <g id="_2251148432528">
   <path class="fil3 str0" d="M719.703 80.391l-116.786 150.897 -4.806 -4.362c-6.946,-6.306 -14.388,-12.065 -22.274,-17.149l-5.495 -3.544 115.664 -149.447 33.697 23.605z"/>
  </g>
  <path class="fil4 str0" d="M711.106 81.695l-23.857 -16.713 -108.16 139.752c8.08,5.21 15.785,11.149 23.055,17.749l108.962 -140.788z"/>
 </g>
</svg>
